<svg width="84" height="84" xmlns="http://www.w3.org/2000/svg" xmlns:xlink="http://www.w3.org/1999/xlink" xmlns:svgjs="http://svgjs.com/svgjs" fill="#f5c506"><svg xmlns="http://www.w3.org/2000/svg" width="84" height="84" viewBox="1.992 1.992 83.016 83.016"><path paint-order="stroke fill markers" fill-rule="evenodd" d="M1.992 56.996L15.072 43.5 1.992 30.004h11.095L26.17 43.5 13.087 56.996H1.992zm16.84 0L31.911 43.5l-13.08-13.496h11.095L43.007 43.5l-13.08 13.496H18.83zm66.176 0L71.928 43.5l13.08-13.496H73.913L60.83 43.5l13.082 13.496h11.095zm-16.84 0L55.089 43.5l13.08-13.496H57.074L43.993 43.5l13.08 13.496H68.17zM30.005 1.992L43.5 15.072l13.497-13.08v11.095L43.499 26.168l-13.495-13.08V1.991zm0 16.84L43.5 31.911l13.497-13.08v11.095l-13.497 13.08-13.495-13.08V18.83zm0 66.176L43.5 71.928l13.497 13.08V73.913L43.499 60.83 30.004 73.913v11.095zm0-16.84L43.5 55.088l13.497 13.08V57.073L43.499 43.992 30.004 57.073v11.095z"/></svg></svg>