<svg width="16" height="16" xmlns="http://www.w3.org/2000/svg" xmlns:xlink="http://www.w3.org/1999/xlink" xmlns:svgjs="http://svgjs.com/svgjs" viewBox="0 0 16 15.999" fill="#f5c506"><svg xmlns="http://www.w3.org/2000/svg" width="16" height="16" viewBox="2 1 15 14.999"><path paint-order="stroke fill markers" fill-rule="evenodd" d="M11.37 8.977v-.958H17v.958h-5.63zm-.185-2.8l5.075-2.428.416.863-5.077 2.429-.414-.864zM10.75 4.04L14.24 1l.52.592-3.49 3.042-.518-.594zm-5.49 7.306V8.795 8.2 5.648c1.447-1.32 3.208-1.995 4.415-3.47v12.639c-1.207-1.475-2.967-2.15-4.415-3.47zM2 5.66h2.915v5.646H2V5.659zm12.759 9.746L14.24 16l-3.489-3.041.52-.593 3.488 3.04zm-3.35-5.399l5.075 2.428-.414.864-5.077-2.428.416-.864z"/></svg></svg>